<?xml version="1.0" encoding="utf-8"?>
<svg viewBox="0 0 512 512" xmlns="http://www.w3.org/2000/svg">
    <path d="M 254.793 28.199 C 249.538 30.412 241.241 35.39 236.54 38.985 C 231.285 42.857 223.817 45.899 218.839 45.899 C 191.736 45.899 146.932 70.514 113.467 103.978 C 92.725 124.721 87.747 131.635 75.578 156.803 C 58.707 191.927 52.899 215.158 52.899 246.963 C 52.899 275.173 57.877 297.575 69.77 320.807 C 74.195 329.933 77.514 337.401 77.237 337.677 C 76.684 337.954 68.94 339.613 60.09 341.273 C 38.518 345.698 21.647 355.931 10.031 371.695 C -7.392 395.48 -1.584 425.349 23.307 438.348 C 34.646 443.879 36.582 446.368 40.73 460.196 C 49.58 487.853 64.515 496.98 68.664 477.067 L 70.323 468.493 L 76.131 475.961 C 84.428 486.47 91.619 484.258 95.767 470.429 C 98.533 460.473 99.086 459.92 101.022 465.728 C 102.128 469.047 105.723 473.195 108.766 474.854 C 113.744 477.344 115.403 477.067 118.446 472.918 C 122.317 467.664 123.147 459.92 122.041 436.965 C 121.764 426.455 123.147 420.647 128.125 412.904 C 134.486 402.671 134.763 402.671 148.315 404.607 C 166.568 406.819 352.421 406.819 366.802 404.33 C 377.312 402.671 378.142 402.947 384.779 412.904 C 390.311 421.754 391.417 426.179 390.587 440.56 C 388.928 474.025 396.672 485.087 410.223 468.77 L 417.691 459.92 L 418.52 469.047 C 419.074 474.025 421.563 479.556 424.328 481.215 C 428.477 483.705 430.413 482.875 435.944 476.237 L 442.305 468.217 L 444.241 477.067 C 449.219 499.469 466.366 485.364 474.663 451.623 C 476.046 446.368 479.918 442.773 488.768 438.901 C 504.533 431.71 512 419.541 512 400.458 C 512 370.589 485.726 345.974 447.56 340.443 C 440.369 339.337 434.561 337.677 435.114 336.571 C 435.668 335.741 439.263 328.551 443.411 321.083 C 455.58 297.575 460.559 276.833 460.282 246.41 C 460.282 202.713 447.007 163.44 419.074 124.444 C 395.012 90.427 346.06 56.686 308.723 48.389 C 294.065 45.07 290.47 42.581 296.278 38.985 C 300.98 36.22 299.32 29.305 294.342 29.305 C 291.576 29.305 283.832 31.795 277.195 34.837 C 263.643 41.198 259.771 40.092 266.685 32.624 C 269.451 29.859 270.557 26.54 269.451 25.71 C 266.962 23.221 266.132 23.221 254.793 28.199 Z M 232.668 157.632 C 244.007 161.781 254.793 165.1 256.176 165.1 C 257.835 165.1 268.345 161.781 279.684 157.356 C 298.49 150.442 303.745 149.612 334.997 149.612 C 368.185 149.612 370.121 149.889 384.503 157.909 C 411.883 172.844 433.455 205.478 436.497 235.901 L 438.157 251.389 L 425.435 238.666 C 402.203 215.158 361.271 199.947 338.316 206.032 C 318.956 211.286 306.511 229.816 306.234 253.325 C 305.958 274.897 316.191 291.491 339.975 308.085 C 361.548 323.296 390.311 349.57 390.311 353.995 C 390.311 359.803 359.335 377.78 336.933 384.694 C 291.3 399.075 225.477 399.905 181.226 386.353 C 161.59 380.545 132.827 365.611 125.913 358.143 C 121.211 352.889 121.211 352.335 126.743 345.145 C 129.785 340.996 140.847 331.04 151.357 323.296 C 185.098 297.575 194.501 288.448 199.756 277.109 C 213.031 248.07 199.203 213.775 171.546 206.308 C 149.974 200.5 113.191 213.222 90.236 234.241 C 83.322 240.602 76.961 245.028 76.131 244.198 C 73.365 241.709 83.322 208.244 89.959 196.628 C 102.405 175.609 123.977 158.186 146.932 150.718 C 150.804 149.335 166.845 148.782 182.886 149.335 C 206.117 149.889 216.074 151.548 232.668 157.632 Z M 131.721 235.348 C 124.53 246.134 123.7 250.282 126.466 260.792 C 127.572 265.217 130.061 266.6 135.316 266.323 C 141.677 265.77 142.783 266.876 142.783 272.684 C 142.783 278.492 144.443 279.875 151.357 280.428 C 162.143 281.534 170.993 274.344 175.971 260.239 L 179.843 249.176 L 180.12 261.068 C 180.12 285.406 152.463 302 130.614 290.661 C 117.616 284.023 109.319 264.387 113.467 250.282 C 116.233 240.879 134.763 220.69 137.805 223.732 C 138.358 224.562 135.869 229.816 131.721 235.348 Z M 393.076 240.326 C 407.181 263.557 390.034 294.81 363.484 294.81 C 352.144 294.81 338.04 285.13 333.338 274.067 C 328.913 263.004 328.083 250.559 332.232 250.559 C 333.891 250.559 334.997 253.878 334.997 257.75 C 334.997 267.983 348.826 280.981 359.888 280.981 C 366.526 280.981 368.462 279.875 367.079 276.833 C 366.249 274.62 366.249 270.748 367.079 268.536 C 369.015 263.557 379.248 263.004 379.248 267.706 C 379.248 270.195 380.354 269.919 382.014 267.153 C 388.098 257.75 383.673 235.624 374.823 230.369 C 372.61 229.263 370.951 227.051 370.951 225.391 C 370.951 220.137 387.822 231.476 393.076 240.326 Z M 159.377 227.327 C 166.845 230.369 169.887 241.985 164.909 249.453 C 159.931 257.196 153.57 258.026 146.379 251.389 C 140.294 245.857 140.018 239.773 145.826 231.752 C 150.251 225.115 152.187 224.562 159.377 227.327 Z M 363.76 230.093 C 372.61 238.666 367.909 256.09 356.846 256.09 C 344.954 256.09 339.422 240.049 347.996 230.646 C 353.527 224.562 358.229 224.285 363.76 230.093 Z M 114.85 436.135 C 116.233 446.368 116.51 457.984 115.403 462.409 C 113.467 469.876 112.914 470.153 109.595 465.451 C 104.341 458.26 96.044 425.902 98.256 420.647 C 99.086 417.882 102.405 416.499 106 417.052 C 111.531 417.882 112.638 420.094 114.85 436.135 Z M 414.648 424.796 C 415.755 433.923 406.351 464.068 401.926 465.728 C 399.437 466.557 398.608 461.303 398.608 446.092 C 398.608 420.924 400.267 415.946 408.011 417.052 C 411.883 417.605 414.095 420.094 414.648 424.796 Z M 87.193 430.88 C 89.683 441.113 89.129 474.578 86.087 474.578 C 82.215 474.578 78.896 467.111 73.642 447.474 C 68.664 428.115 69.493 424.796 78.896 424.796 C 83.322 424.796 86.087 426.732 87.193 430.88 Z M 441.199 434.752 C 440.646 446.645 432.072 474.578 429.03 474.578 C 424.605 474.578 422.669 461.303 424.881 442.496 C 426.817 425.072 427.094 424.519 434.008 425.349 C 440.369 426.179 441.475 427.285 441.199 434.752 Z M 59.537 436.688 C 62.026 446.368 61.473 480.109 58.707 480.109 C 55.941 480.109 46.538 456.878 43.496 442.22 C 41.837 435.582 42.666 432.816 46.262 430.88 C 52.899 427.285 57.601 429.498 59.537 436.688 Z M 469.132 443.602 C 466.643 457.431 456.687 480.109 453.091 480.109 C 449.219 480.109 452.538 436.688 456.687 431.71 C 459.176 428.668 461.388 428.391 465.537 430.604 C 470.238 433.093 470.792 435.305 469.132 443.602 Z"
          stroke="none" fill="currentColor"/>
    <path d="M 238.199 267.706 C 221.605 276.556 235.157 300.341 256.729 300.341 C 273.876 300.341 289.087 279.045 278.578 270.195 C 272.493 264.94 246.219 263.557 238.199 267.706 Z"
          stroke="none" fill="currentColor"/>
    <path d="M 211.095 316.105 C 212.202 323.019 229.625 330.763 247.326 332.699 C 263.92 334.359 290.47 327.998 296.278 321.083 C 302.086 314.169 297.661 313.616 286.045 319.701 C 264.473 330.763 231.561 329.38 220.222 316.935 C 214.138 310.021 209.713 309.744 211.095 316.105 Z"
          stroke="none" fill="currentColor"/>
</svg>